<svg width="2197" height="2826" xmlns="http://www.w3.org/2000/svg" xmlns:xlink="http://www.w3.org/1999/xlink" xml:space="preserve" overflow="hidden"><defs><clipPath id="clip0"><rect x="1822" y="4476" width="2197" height="2826"/></clipPath></defs><g clip-path="url(#clip0)" transform="translate(-1822 -4476)"><rect x="1823" y="4477" width="2194" height="2823" fill="#FFFFFF"/><g><path d="M1932.5 6746.72 3952.5 6746.72M1932.5 6396.71 3952.5 6396.71M1932.5 6046.7 3952.5 6046.7M1932.5 5697.69 3952.5 5697.69M1932.5 5347.68 3952.5 5347.68M1932.5 4997.66 3952.5 4997.66M1932.5 4647.5 3952.5 4647.5" stroke="#D9D9D9" stroke-width="3.4375" stroke-linejoin="round" stroke-miterlimit="10" fill="none"/></g><g><rect x="1933" y="4647" width="2020" height="2450" stroke="#156082" stroke-width="2.29167" stroke-linejoin="round" stroke-miterlimit="10" fill="none"/></g><g><rect x="2072" y="6922" width="12" height="175" fill="#FF0000"/></g><g><rect x="2409" y="6467" width="12" height="630" fill="#FF0000"/></g><g><rect x="2768" y="5837" width="12" height="1260" fill="#FF0000"/></g><g><rect x="2903" y="5697" width="12" height="1400" fill="#156082"/></g><g><rect x="3127" y="5277" width="12" height="1820" fill="#FF0000"/></g><g><rect x="3262" y="5102" width="12" height="1995" fill="#156082"/></g><g><rect x="3487" y="4997" width="11" height="2100" fill="#FF0000"/></g><g><rect x="3846" y="4857" width="12" height="2240" fill="#FF0000"/></g><g><path d="M2028.07 7062.23 2039.07 7062.23 2039.07 7097 2028.07 7097ZM2050.07 7062.23 2062.07 7062.23 2062.07 7097 2050.07 7097ZM2095.07 6817.22 2107.07 6817.22 2107.07 7097 2095.07 7097ZM2117.07 6747.22 2129.07 6747.22 2129.07 7097 2117.07 7097ZM2140.07 6747.22 2152.07 6747.22 2152.07 7097 2140.07 7097ZM2162.07 6747.22 2174.07 6747.22 2174.07 7097 2162.07 7097ZM2185.07 6747.22 2197.07 6747.22 2197.07 7097 2185.07 7097ZM2207.07 6747.22 2219.07 6747.22 2219.07 7097 2207.07 7097ZM2230.07 6747.22 2241.07 6747.22 2241.07 7097 2230.07 7097ZM2252.07 6747.22 2264.07 6747.22 2264.07 7097 2252.07 7097ZM2274.07 6747.22 2286.07 6747.22 2286.07 7097 2274.07 7097ZM2297.08 6747.22 2309.08 6747.22 2309.08 7097 2297.08 7097ZM2319.08 6747.22 2331.08 6747.22 2331.08 7097 2319.08 7097ZM2342.08 6747.22 2354.08 6747.22 2354.08 7097 2342.08 7097ZM2364.08 6572.22 2376.08 6572.22 2376.08 7097 2364.08 7097ZM2387.08 6572.22 2399.08 6572.22 2399.08 7097 2387.08 7097ZM2432.08 6397.21 2443.08 6397.21 2443.08 7097 2432.08 7097ZM2454.08 6292.21 2466.08 6292.21 2466.08 7097 2454.08 7097ZM2476.08 6257.21 2488.08 6257.21 2488.08 7097 2476.08 7097ZM2499.08 6222.2 2511.08 6222.2 2511.08 7097 2499.08 7097ZM2521.08 6222.2 2533.08 6222.2 2533.08 7097 2521.08 7097ZM2544.08 6222.2 2556.08 6222.2 2556.08 7097 2544.08 7097ZM2566.08 6222.2 2578.08 6222.2 2578.08 7097 2566.08 7097ZM2589.08 6222.2 2601.09 6222.2 2601.09 7097 2589.08 7097ZM2611.09 6222.2 2623.09 6222.2 2623.09 7097 2611.09 7097ZM2634.09 6222.2 2645.09 6222.2 2645.09 7097 2634.09 7097ZM2656.09 6222.2 2668.09 6222.2 2668.09 7097 2656.09 7097ZM2678.09 6082.2 2690.09 6082.2 2690.09 7097 2678.09 7097ZM2701.09 6047.2 2713.09 6047.2 2713.09 7097 2701.09 7097ZM2723.09 5977.2 2735.09 5977.2 2735.09 7097 2723.09 7097ZM2746.09 5907.19 2758.09 5907.19 2758.09 7097 2746.09 7097ZM2791.09 5732.19 2803.09 5732.19 2803.09 7097 2791.09 7097ZM2813.09 5697.19 2825.09 5697.19 2825.09 7097 2813.09 7097ZM2836.09 5697.19 2847.09 5697.19 2847.09 7097 2836.09 7097ZM2858.09 5697.19 2870.09 5697.19 2870.09 7097 2858.09 7097ZM2880.09 5697.19 2892.09 5697.19 2892.09 7097 2880.09 7097ZM2925.1 5697.19 2937.1 5697.19 2937.1 7097 2925.1 7097ZM2948.1 5662.19 2960.1 5662.19 2960.1 7097 2948.1 7097ZM2970.1 5662.19 2982.1 5662.19 2982.1 7097 2970.1 7097ZM2993.1 5627.18 3005.1 5627.18 3005.1 7097 2993.1 7097ZM3015.1 5627.18 3027.1 5627.18 3027.1 7097 3015.1 7097ZM3038.1 5627.18 3049.1 5627.18 3049.1 7097 3038.1 7097ZM3060.1 5522.18 3072.1 5522.18 3072.1 7097 3060.1 7097ZM3082.1 5522.18 3094.1 5522.18 3094.1 7097 3082.1 7097ZM3105.1 5382.18 3117.1 5382.18 3117.1 7097 3105.1 7097ZM3150.1 5242.17 3162.1 5242.17 3162.1 7097 3150.1 7097ZM3172.1 5172.17 3184.1 5172.17 3184.1 7097 3172.1 7097ZM3195.1 5172.17 3207.11 5172.17 3207.11 7097 3195.1 7097ZM3217.11 5137.17 3229.11 5137.17 3229.11 7097 3217.11 7097ZM3240.11 5102.17 3251.11 5102.17 3251.11 7097 3240.11 7097ZM3284.11 5067.17 3296.11 5067.17 3296.11 7097 3284.11 7097ZM3307.11 5067.17 3319.11 5067.17 3319.11 7097 3307.11 7097ZM3329.11 5032.17 3341.11 5032.17 3341.11 7097 3329.11 7097ZM3352.11 5032.17 3364.11 5032.17 3364.11 7097 3352.11 7097ZM3374.11 5032.17 3386.11 5032.17 3386.11 7097 3374.11 7097ZM3397.11 5032.17 3409.11 5032.17 3409.11 7097 3397.11 7097ZM3419.11 5032.17 3431.11 5032.17 3431.11 7097 3419.11 7097ZM3442.11 5032.17 3453.11 5032.17 3453.11 7097 3442.11 7097ZM3464.11 4997.16 3476.11 4997.16 3476.11 7097 3464.11 7097ZM3509.12 4997.16 3521.12 4997.16 3521.12 7097 3509.12 7097ZM3531.12 4997.16 3543.12 4997.16 3543.12 7097 3531.12 7097ZM3554.12 4997.16 3566.12 4997.16 3566.12 7097 3554.12 7097ZM3576.12 4997.16 3588.12 4997.16 3588.12 7097 3576.12 7097ZM3599.12 4997.16 3611.12 4997.16 3611.12 7097 3599.12 7097ZM3621.12 4997.16 3633.12 4997.16 3633.12 7097 3621.12 7097ZM3644.12 4997.16 3656.12 4997.16 3656.12 7097 3644.12 7097ZM3666.12 4997.16 3678.12 4997.16 3678.12 7097 3666.12 7097ZM3689.12 4962.16 3700.12 4962.16 3700.12 7097 3689.12 7097ZM3711.12 4962.16 3723.12 4962.16 3723.12 7097 3711.12 7097ZM3733.12 4962.16 3745.12 4962.16 3745.12 7097 3733.12 7097ZM3756.12 4962.16 3768.12 4962.16 3768.12 7097 3756.12 7097ZM3778.12 4962.16 3790.12 4962.16 3790.12 7097 3778.12 7097ZM3801.12 4927.16 3813.12 4927.16 3813.12 7097 3801.12 7097ZM3823.13 4857.16 3835.13 4857.16 3835.13 7097 3823.13 7097ZM3868.13 4857.16 3880.13 4857.16 3880.13 7097 3868.13 7097ZM3891.13 4857.16 3902.13 4857.16 3902.13 7097 3891.13 7097ZM3913.13 4822.16 3925.13 4822.16 3925.13 7097 3913.13 7097ZM3935.13 4822.16 3947.13 4822.16 3947.13 7097 3935.13 7097Z" fill="#156082"/></g><g><path d="M1932.5 7097.5 3952.5 7097.5" stroke="#D9D9D9" stroke-width="3.4375" stroke-linejoin="round" stroke-miterlimit="10" fill="none" fill-rule="evenodd"/></g><g><text fill="#595959" font-family="Aptos Narrow,Aptos Narrow_MSFontService,sans-serif" font-weight="400" font-stretch="semi-condensed" font-size="41" transform="matrix(1 0 0 1 1873.55 7109)">0</text></g><g><text fill="#595959" font-family="Aptos Narrow,Aptos Narrow_MSFontService,sans-serif" font-weight="400" font-stretch="semi-condensed" font-size="41" transform="matrix(1 0 0 1 1852.65 6759)">10</text></g><g><text fill="#595959" font-family="Aptos Narrow,Aptos Narrow_MSFontService,sans-serif" font-weight="400" font-stretch="semi-condensed" font-size="41" transform="matrix(1 0 0 1 1852.65 6409)">20</text></g><g><text fill="#595959" font-family="Aptos Narrow,Aptos Narrow_MSFontService,sans-serif" font-weight="400" font-stretch="semi-condensed" font-size="41" transform="matrix(1 0 0 1 1852.65 6059)">30</text></g><g><text fill="#595959" font-family="Aptos Narrow,Aptos Narrow_MSFontService,sans-serif" font-weight="400" font-stretch="semi-condensed" font-size="41" transform="matrix(1 0 0 1 1852.65 5709)">40</text></g><g><text fill="#595959" font-family="Aptos Narrow,Aptos Narrow_MSFontService,sans-serif" font-weight="400" font-stretch="semi-condensed" font-size="41" transform="matrix(1 0 0 1 1852.65 5359)">50</text></g><g><text fill="#595959" font-family="Aptos Narrow,Aptos Narrow_MSFontService,sans-serif" font-weight="400" font-stretch="semi-condensed" font-size="41" transform="matrix(1 0 0 1 1852.65 5009)">60</text></g><g><text fill="#595959" font-family="Aptos Narrow,Aptos Narrow_MSFontService,sans-serif" font-weight="400" font-stretch="semi-condensed" font-size="41" transform="matrix(1 0 0 1 1852.65 4659)">70</text></g><g><text fill="#595959" font-family="Aptos Narrow,Aptos Narrow_MSFontService,sans-serif" font-weight="400" font-stretch="semi-condensed" font-size="41" transform="matrix(1 0 0 1 1933.31 7162)">1</text></g><g><text fill="#595959" font-family="Aptos Narrow,Aptos Narrow_MSFontService,sans-serif" font-weight="400" font-stretch="semi-condensed" font-size="41" transform="matrix(1 0 0 1 1984.83 7162)">1,3</text></g><g><text fill="#595959" font-family="Aptos Narrow,Aptos Narrow_MSFontService,sans-serif" font-weight="400" font-stretch="semi-condensed" font-size="41" transform="matrix(1 0 0 1 2052.17 7162)">1,6</text></g><g><text fill="#595959" font-family="Aptos Narrow,Aptos Narrow_MSFontService,sans-serif" font-weight="400" font-stretch="semi-condensed" font-size="41" transform="matrix(1 0 0 1 2119.51 7162)">1,9</text></g><g><text fill="#595959" font-family="Aptos Narrow,Aptos Narrow_MSFontService,sans-serif" font-weight="400" font-stretch="semi-condensed" font-size="41" transform="matrix(1 0 0 1 2186.85 7162)">2,3</text></g><g><text fill="#595959" font-family="Aptos Narrow,Aptos Narrow_MSFontService,sans-serif" font-weight="400" font-stretch="semi-condensed" font-size="41" transform="matrix(1 0 0 1 2254.19 7162)">2,6</text></g><g><text fill="#595959" font-family="Aptos Narrow,Aptos Narrow_MSFontService,sans-serif" font-weight="400" font-stretch="semi-condensed" font-size="41" transform="matrix(1 0 0 1 2321.53 7162)">2,9</text></g><g><text fill="#595959" font-family="Aptos Narrow,Aptos Narrow_MSFontService,sans-serif" font-weight="400" font-stretch="semi-condensed" font-size="41" transform="matrix(1 0 0 1 2388.87 7162)">3,2</text></g><g><text fill="#595959" font-family="Aptos Narrow,Aptos Narrow_MSFontService,sans-serif" font-weight="400" font-stretch="semi-condensed" font-size="41" transform="matrix(1 0 0 1 2456.21 7162)">3,5</text></g><g><text fill="#595959" font-family="Aptos Narrow,Aptos Narrow_MSFontService,sans-serif" font-weight="400" font-stretch="semi-condensed" font-size="41" transform="matrix(1 0 0 1 2523.55 7162)">3,8</text></g><g><text fill="#595959" font-family="Aptos Narrow,Aptos Narrow_MSFontService,sans-serif" font-weight="400" font-stretch="semi-condensed" font-size="41" transform="matrix(1 0 0 1 2590.89 7162)">4,1</text></g><g><text fill="#595959" font-family="Aptos Narrow,Aptos Narrow_MSFontService,sans-serif" font-weight="400" font-stretch="semi-condensed" font-size="41" transform="matrix(1 0 0 1 2658.23 7162)">4,4</text></g><g><text fill="#595959" font-family="Aptos Narrow,Aptos Narrow_MSFontService,sans-serif" font-weight="400" font-stretch="semi-condensed" font-size="41" transform="matrix(1 0 0 1 2725.57 7162)">4,7</text></g><g><text fill="#595959" font-family="Aptos Narrow,Aptos Narrow_MSFontService,sans-serif" font-weight="400" font-stretch="semi-condensed" font-size="41" transform="matrix(1 0 0 1 2808.72 7162)">5</text></g><g><text fill="#595959" font-family="Aptos Narrow,Aptos Narrow_MSFontService,sans-serif" font-weight="400" font-stretch="semi-condensed" font-size="41" transform="matrix(1 0 0 1 2860.24 7162)">5,3</text></g><g><text fill="#595959" font-family="Aptos Narrow,Aptos Narrow_MSFontService,sans-serif" font-weight="400" font-stretch="semi-condensed" font-size="41" transform="matrix(1 0 0 1 2927.58 7162)">5,6</text></g><g><text fill="#595959" font-family="Aptos Narrow,Aptos Narrow_MSFontService,sans-serif" font-weight="400" font-stretch="semi-condensed" font-size="41" transform="matrix(1 0 0 1 2994.92 7162)">5,9</text></g><g><text fill="#595959" font-family="Aptos Narrow,Aptos Narrow_MSFontService,sans-serif" font-weight="400" font-stretch="semi-condensed" font-size="41" transform="matrix(1 0 0 1 3062.26 7162)">6,2</text></g><g><text fill="#595959" font-family="Aptos Narrow,Aptos Narrow_MSFontService,sans-serif" font-weight="400" font-stretch="semi-condensed" font-size="41" transform="matrix(1 0 0 1 3129.6 7162)">6,5</text></g><g><text fill="#595959" font-family="Aptos Narrow,Aptos Narrow_MSFontService,sans-serif" font-weight="400" font-stretch="semi-condensed" font-size="41" transform="matrix(1 0 0 1 3196.94 7162)">6,8</text></g><g><text fill="#595959" font-family="Aptos Narrow,Aptos Narrow_MSFontService,sans-serif" font-weight="400" font-stretch="semi-condensed" font-size="41" transform="matrix(1 0 0 1 3264.28 7162)">7,1</text></g><g><text fill="#595959" font-family="Aptos Narrow,Aptos Narrow_MSFontService,sans-serif" font-weight="400" font-stretch="semi-condensed" font-size="41" transform="matrix(1 0 0 1 3331.62 7162)">7,4</text></g><g><text fill="#595959" font-family="Aptos Narrow,Aptos Narrow_MSFontService,sans-serif" font-weight="400" font-stretch="semi-condensed" font-size="41" transform="matrix(1 0 0 1 3398.96 7162)">7,7</text></g><g><text fill="#595959" font-family="Aptos Narrow,Aptos Narrow_MSFontService,sans-serif" font-weight="400" font-stretch="semi-condensed" font-size="41" transform="matrix(1 0 0 1 3482.11 7162)">8</text></g><g><text fill="#595959" font-family="Aptos Narrow,Aptos Narrow_MSFontService,sans-serif" font-weight="400" font-stretch="semi-condensed" font-size="41" transform="matrix(1 0 0 1 3533.64 7162)">8,3</text></g><g><text fill="#595959" font-family="Aptos Narrow,Aptos Narrow_MSFontService,sans-serif" font-weight="400" font-stretch="semi-condensed" font-size="41" transform="matrix(1 0 0 1 3600.98 7162)">8,6</text></g><g><text fill="#595959" font-family="Aptos Narrow,Aptos Narrow_MSFontService,sans-serif" font-weight="400" font-stretch="semi-condensed" font-size="41" transform="matrix(1 0 0 1 3668.32 7162)">8,9</text></g><g><text fill="#595959" font-family="Aptos Narrow,Aptos Narrow_MSFontService,sans-serif" font-weight="400" font-stretch="semi-condensed" font-size="41" transform="matrix(1 0 0 1 3735.66 7162)">9,2</text></g><g><text fill="#595959" font-family="Aptos Narrow,Aptos Narrow_MSFontService,sans-serif" font-weight="400" font-stretch="semi-condensed" font-size="41" transform="matrix(1 0 0 1 3803 7162)">9,5</text></g><g><text fill="#595959" font-family="Aptos Narrow,Aptos Narrow_MSFontService,sans-serif" font-weight="400" font-stretch="semi-condensed" font-size="41" transform="matrix(1 0 0 1 3870.33 7162)">9,8</text></g><g><text fill="#595959" font-family="Aptos Narrow,Aptos Narrow_MSFontService,sans-serif" font-weight="400" font-stretch="semi-condensed" font-size="46" transform="matrix(1 0 0 1 2562.97 7230)">Max Ladung für einfach geladene Teilchen</text></g><g><text fill="#595959" font-family="Aptos Narrow,Aptos Narrow_MSFontService,sans-serif" font-weight="400" font-stretch="semi-condensed" font-size="64" transform="matrix(1 0 0 1 2281.86 4572)">Anzahl der Teilchen in Abhänigkeit der max Ladung </text></g><rect x="1823.5" y="4477.5" width="2194" height="2823" stroke="#D9D9D9" stroke-width="3.4375" stroke-linejoin="round" stroke-miterlimit="10" fill="none"/></g></svg>